<svg id="Capa_1" enable-background="new 0 0 512.014 512.014" height="512" viewBox="0 0 512.014 512.014" width="512" xmlns="http://www.w3.org/2000/svg"><g><path d="m432.092 97.015h-38.809c3.072-8.207 4.724-17.028 4.724-26 0-63.505-76.887-94.525-121.24-50.173l-20.29 20.419c-19.704-21.62-18.299-20.089-18.663-20.453-27.744-27.743-72.665-27.748-100.413 0-20.578 20.578-25.703 50.845-16.212 76.206h-41.267c-21.458 0-38.915 18.282-38.915 40.754v60.491c0 22.472 17.457 40.754 38.915 40.754h9.085v232.296c0 22.443 18.259 40.702 40.702 40.702h252.596c22.443 0 40.702-18.259 40.702-40.702v-232.294h9.085c21.458 0 38.915-18.282 38.915-40.754v-60.491c0-22.472-17.457-40.755-38.915-40.755zm-134.078-54.993c16.024-16.023 41.961-16.025 57.986 0 15.359 15.358 15.401 39.07 3.441 54.993h-88.434v-27.813zm-139.401.001c15.78-15.779 41.565-16.175 57.76-.226l24.634 27.03v28.189h-85.873c-12.397-16.202-11.244-40.27 3.479-54.993zm-39.606 196.992h122v105.999h-122zm0 232.296v-96.297h122v107h-111.298c-5.901 0-10.702-4.801-10.702-10.703zm263.298 10.703h-111.298v-107h122v96.297c0 5.902-4.801 10.703-10.702 10.703zm10.702-137h-122v-105.999h122zm48-146.753c0 5.93-3.999 10.754-8.915 10.754-14.322 0-341.356 0-352.17 0-4.916 0-8.915-4.824-8.915-10.754v-60.491c0-5.93 3.999-10.754 8.915-10.754h352.17c4.916 0 8.915 4.824 8.915 10.754z"/></g></svg>