<svg id="Capa_1" enable-background="new 0 0 512.008 512.008" height="512" viewBox="0 0 512.008 512.008" width="512" xmlns="http://www.w3.org/2000/svg"><g><path d="m320.27 287.074c8.284 0 15-6.716 15-15v-128.533c0-8.284-6.716-15-15-15h-128.533c-8.284 0-15 6.716-15 15v128.534c0 8.284 6.716 15 15 15h128.533zm-49.266-30v-34.267h34.267v34.267zm34.266-64.267h-34.267v-34.267h34.267zm-64.266-34.266v34.267h-34.267v-34.267zm-34.267 64.266h34.267v34.267h-34.267z"/><path d="m497.004 449.874h-196.328c-4.694-13.94-15.732-24.978-29.672-29.672v-68.861h112.716c16.969 0 30.774-13.303 30.774-29.655v-160.827c9.127 7.901 12.118 11.748 19.155 11.748 13.867 0 20.266-17.302 9.823-26.342l-154.22-133.494c-18.539-17.019-47.937-17.038-66.497 0l-154.219 133.494c-6.264 5.422-6.946 14.895-1.524 21.158 5.422 6.265 14.896 6.947 21.158 1.524l9.344-8.088v160.827c0 16.352 13.805 29.655 30.774 29.655h112.716v68.861c-13.94 4.694-24.978 15.732-29.672 29.672h-196.328c-8.284 0-15 6.716-15 15s6.716 15 15 15h196.328c6.281 18.655 23.926 32.133 44.672 32.133s38.391-13.478 44.672-32.133h196.328c8.284 0 15-6.716 15-15s-6.716-15-15-15zm-369.49-128.699v-186.284l115.056-99.593c8.823-7.627 20.076-6.299 26.476-.353.291.271-5.278-4.557 115.449 99.946 0 201.266.37 186.45-.774 186.45-267.108 0-255.715.093-256.207-.166zm128.49 160.833c-9.447 0-17.133-7.686-17.133-17.133s7.686-17.133 17.133-17.133 17.133 7.686 17.133 17.133-7.686 17.133-17.133 17.133z"/></g></svg>