<svg id="Capa_1" enable-background="new 0 0 512.001 512.001" height="512" viewBox="0 0 512.001 512.001" width="512" xmlns="http://www.w3.org/2000/svg"><g><path d="m474.662 105c-7.313 0-240.418 0-247.725 0-18.97 0-34.915 14.218-37.09 33.073l-26.205 227.294c-2.553 22.154 14.779 41.633 37.089 41.633h247.725c18.97 0 34.915-14.218 37.09-33.073l26.205-227.294c2.553-22.153-14.778-41.633-37.089-41.633zm-94.114 30-7.545 53.692h-55.944l7.545-53.692zm101.4 8.198-26.205 227.293c-.428 3.711-3.561 6.509-7.287 6.509h-247.725c-4.402 0-7.788-3.846-7.286-8.197l26.205-227.293c.428-3.711 3.561-6.509 7.287-6.509h67.371l-9.359 66.605c-1.267 9.029 5.753 17.087 14.854 17.087h86.239c7.478 0 13.813-5.508 14.854-12.913l9.945-70.78h63.819c4.404 0 7.79 3.846 7.288 8.198z"/><path d="m119.983 305.107h-104.983c-8.284 0-15 6.716-15 15s6.716 15 15 15h104.983c8.284 0 15-6.716 15-15s-6.715-15-15-15z"/><path d="m119.983 241.107h-88.004c-8.284 0-15 6.716-15 15s6.716 15 15 15h88.004c8.284 0 15-6.716 15-15s-6.715-15-15-15z"/><path d="m119.983 177.107h-72.003c-8.284 0-15 6.716-15 15s6.716 15 15 15h72.003c8.284 0 15-6.716 15-15s-6.715-15-15-15z"/></g></svg>