<svg id="Capa_1" enable-background="new 0 0 512 512" height="512" viewBox="0 0 512 512" width="512" xmlns="http://www.w3.org/2000/svg"><g><path d="m195.219 417h-16c-8.284 0-15 6.716-15 15s6.716 15 15 15h16c8.284 0 15-6.716 15-15s-6.716-15-15-15z"/><path d="m489.049 174.616-82.445-82.445c-12.218-12.219-30.572-13.845-44.385-5.795v-20.866c0-36.122-29.388-65.51-65.51-65.51h-218.979c-36.123 0-65.511 29.388-65.511 65.51v380.98c0 36.122 29.388 65.51 65.511 65.51h218.979c36.122 0 65.51-29.388 65.51-65.51v-93.14l126.83-126.83c14.31-14.309 14.31-37.593 0-51.904zm-108.398-63.196c3.702 0 3.03.255 24.546 21.77l-162.788 162.787-19.806-19.806c-2.613-2.614-2.613-6.866-.001-9.479 163.948-163.947 154.066-155.272 158.049-155.272zm-234.432-81.42h82v25.15c0 5.805-3.552 9.85-6.739 9.85h-68.521c-3.188 0-6.74-4.045-6.74-9.85zm150.49 452h-218.979c-19.581 0-35.511-15.93-35.511-35.51v-380.98c0-19.58 15.93-35.51 35.511-35.51h38.489v25.15c0 21.974 16.481 39.85 36.74 39.85h68.521c20.258 0 36.739-17.876 36.739-39.85v-25.15h38.49c19.58 0 35.51 15.93 35.51 35.51v49.141l-130.83 130.829c-14.309 14.31-14.309 37.594.001 51.904l82.445 82.445c13.256 13.258 34.024 14.228 48.384 3.092v63.57c0 19.579-15.93 35.509-35.51 35.509zm171.127-276.692c-164.912 164.911-154.244 155.272-158.048 155.272-3.858 0-1.522 1.253-46.166-43.39l162.787-162.787 41.426 41.426c2.613 2.613 2.613 6.865.001 9.479z"/></g></svg>