<svg id="Capa_1" enable-background="new 0 0 512 512" height="512" viewBox="0 0 512 512" width="512" xmlns="http://www.w3.org/2000/svg"><g><path d="m508.565 474.46-27.021-189.22c-2.3-16.1-16.297-28.24-32.56-28.24h-38.706c12.499-31.722 19.353-60.661 19.353-83.62 0-95.602-77.607-173.38-173-173.38s-173 77.778-173 173.38c0 24.784 7.763 54.253 19.238 83.62h-33.089c-15.956 0-29.573 11.401-32.378 27.109l-33.782 189.221c-3.601 20.176 11.922 38.67 32.379 38.67h440.007c20.016 0 35.386-17.746 32.559-37.54zm-251.933-444.46c78.851 0 143 64.32 143 143.38 0 36.295-23.194 96.804-59.09 154.153-6.448 10.302-12.002 18.328-12.115 18.497-33.414 48.772-61.437 70.97-71.795 70.97-5.398 0-15.797-5.603-29.628-18.636-4.148-4.382-24.817-22.197-55.006-70.789-35.456-57.071-58.366-117.597-58.366-154.196 0-79.059 64.149-143.379 143-143.379zm-189.697 259.382c.246-1.38 1.442-2.382 2.845-2.382h46.043c.257.545.521 1.085.78 1.63l-59.377 55.134zm10.911 192.618c-45.429 0-42.828.443-44.063-1.035-1.265-1.51-1.727 3.781 14.682-88.127l82.326-76.443c20.816 38.117 43.208 68.93 61.997 89.722zm54.452 0 82.437-54.424c15.586 13.039 29.39 19.424 41.897 19.424 29.044 0 62.158-38.271 80.339-61.75l38.111 96.75zm345.89-.996c-1.232 1.423 4.383.996-70.863.996l-49.564-125.823c14.696-22.15 28.264-45.93 39.395-69.177h51.829c1.429 0 2.658 1.067 2.86 2.481 28.888 202.299 27.687 189.975 26.343 191.523z"/><path d="m212.659 242.565c10.448 6.834 18.27 9.801 27.495 10.982v4.644c0 8.284 6.716 15 15 15s15-6.716 15-15v-6.184c42.985-13.131 50.88-75.603 4.242-92.089-1.4-.495-2.819-1.003-4.242-1.521v-30.791c1.572 1 1.96 1.517 1.459 1.017l.035-.038c9.264 9.571 25.366 2.875 25.366-10.671 0-4.969-2.346-9.366-5.955-12.133-4.341-3.705-11.615-7.981-20.905-10.232v-4.125c0-8.284-6.716-15-15-15s-15 6.716-15 15v5.076c-32.906 10.283-40.199 53.588-16.778 71.956 4.806 3.77 10.553 7.066 16.778 10.036v44.534c-3.406-.96-6.594-2.639-11.071-5.567-6.934-4.534-16.23-2.592-20.765 4.341-4.535 6.934-2.592 16.23 4.341 20.765zm57.495-24.708v-26.667c8.716 6.503 7.072 19.211 0 26.667zm-30.206-81.953c.272-1.437.206-2.252.206 6.074-.515-1.715-.622-3.865-.206-6.074z"/></g></svg>