<svg id="Capa_1" enable-background="new 0 0 512 512" height="512" viewBox="0 0 512 512" width="512" xmlns="http://www.w3.org/2000/svg"><g><path d="m450.958 5h-389.916c-33.659 0-61.042 27.383-61.042 61.042v307.915c0 33.66 27.383 61.043 61.042 61.043h98.566v42h-47.608c-8.284 0-15 6.716-15 15s6.716 15 15 15h288c8.284 0 15-6.716 15-15s-6.716-15-15-15h-47.609v-42h98.566c33.66 0 61.043-27.383 61.043-61.042v-307.916c0-33.659-27.383-61.042-61.042-61.042zm-389.916 30h389.915c17.117 0 31.043 13.926 31.043 31.042v274.958h-452v-274.958c0-17.116 13.926-31.042 31.042-31.042zm261.349 442h-132.782v-42h132.782zm128.567-72c-22.834 0-368.25 0-389.915 0-17.117 0-31.043-13.926-31.043-31.042v-2.958h452v2.958c0 17.116-13.926 31.042-31.042 31.042z"/><path d="m128.578 99h32.422v125.65c0 12.324 10.026 22.35 22.35 22.35h129.781c10.15 0 19.04-6.857 21.617-16.675l21.342-81.302c3.717-14.166-6.96-28.023-21.618-28.023h-143.472v-37c0-8.284-6.716-15-15-15h-47.422c-8.284 0-15 6.716-15 15s6.716 15 15 15zm195.977 52-17.326 66h-116.229c0-22.107 0-51.668 0-66z"/><path d="m208 277h-24c-8.284 0-15 6.716-15 15s6.716 15 15 15h24c8.284 0 15-6.716 15-15s-6.716-15-15-15z"/><path d="m312 277h-24c-8.284 0-15 6.716-15 15s6.716 15 15 15h24c8.284 0 15-6.716 15-15s-6.716-15-15-15z"/></g></svg>