<svg id="Capa_1" enable-background="new 0 0 512 512" height="512" viewBox="0 0 512 512" width="512" xmlns="http://www.w3.org/2000/svg"><g><path d="m450.96 0h-389.92c-33.658 0-61.04 27.382-61.04 61.04v325.92c0 33.658 27.382 61.04 61.04 61.04h74.21v34h-47.25c-8.284 0-15 6.716-15 15s6.716 15 15 15h373.053c28.093 0 50.947-22.854 50.947-50.947 0-7.302 0-386.287 0-400.013 0-33.658-27.383-61.04-61.04-61.04zm-389.92 30h389.92c17.115 0 31.04 13.924 31.04 31.04v136.484c-6.395-2.897-13.482-4.524-20.947-4.524h-125.298c-28.092 0-50.946 22.854-50.946 50.947v45.053h-189.809v-20.733l91.785-148.269 58.608 58.608c5.857 5.858 15.355 5.858 21.213 0l79.898-79.898 46.053 26.315c4.706 2.69 5.136 1.977 39.443 1.977 8.284 0 15-6.716 15-15s-6.716-15-15-15h-28.017l-52.541-30.023c-5.875-3.356-13.266-2.366-18.049 2.417l-77.393 77.393-61.394-61.393c-6.835-6.835-18.272-5.507-23.36 2.711l-76.246 123.166v-131.271c0-8.284-6.716-15-15-15s-15 6.716-15 15v224c0 8.284 6.716 15 15 15h204.809v35h-254.809v-292.96c0-17.116 13.924-31.04 31.04-31.04zm318.623 193h38.359c0 20.926.384 22.756-1.177 26.226h-36.005c-1.573-3.497-1.177-5.486-1.177-26.226zm-349.663 163.96v-2.96h254.809v34c-43.633 0-180.11 0-223.769 0-17.116 0-31.04-13.924-31.04-31.04zm135.25 61.04h119.559c0 13.795-.835 22.171 4.524 34h-124.083zm316.75 13.053c0 11.55-9.396 20.947-20.947 20.947-14.282 0-113.375 0-125.298 0-11.55 0-20.946-9.396-20.946-20.947 0-75.908 0-142.063 0-217.106 0-11.55 9.396-20.947 20.946-20.947h13.908v19.959c0 20.336 12.417 36.267 28.269 36.267h41.821c15.853 0 28.27-15.93 28.27-36.267v-19.959h13.03c11.551 0 20.947 9.396 20.947 20.947z"/><path d="m409.851 417.2h-19.701c-8.284 0-15 6.716-15 15s6.716 15 15 15h19.701c8.284 0 15-6.716 15-15s-6.716-15-15-15z"/></g></svg>