<svg id="Capa_1" enable-background="new 0 0 512 512" height="512" viewBox="0 0 512 512" width="512" xmlns="http://www.w3.org/2000/svg"><g><path d="m160 265h-76c-8.284 0-15 6.716-15 15s6.716 15 15 15h76c8.284 0 15-6.716 15-15s-6.716-15-15-15z"/><path d="m160 201h-76c-8.284 0-15 6.716-15 15s6.716 15 15 15h76c8.284 0 15-6.716 15-15s-6.716-15-15-15z"/><path d="m308 137h-224c-8.284 0-15 6.716-15 15s6.716 15 15 15h224c8.284 0 15-6.716 15-15s-6.716-15-15-15z"/><path d="m308 81h-224c-8.284 0-15 6.716-15 15s6.716 15 15 15h224c8.284 0 15-6.716 15-15s-6.716-15-15-15z"/><path d="m470.128 241h-87.128v-177.69c0-34.909-28.4-63.31-63.31-63.31h-247.38c-34.91 0-63.31 28.401-63.31 63.31v344.679c0 57.352 46.659 104.011 104.011 104.011h314.989c41.355 0 75-33.645 75-75v-163.127c0-18.126-14.746-32.873-32.872-32.873zm-357.117 241c-40.81 0-74.011-33.201-74.011-74.011v-344.679c0-18.367 14.942-33.31 33.31-33.31h247.38c18.368 0 33.31 14.943 33.31 33.31v373.69c0 16.871 5.603 32.456 15.041 45zm359.989-45c0 24.813-20.187 45-45 45s-45-20.187-45-45v-166h87.128c1.584 0 2.872 1.289 2.872 2.873z"/><path d="m283.128 303.722c-2.518-.89-5.08-1.814-7.646-2.765v-46.403c9.024 3.502 9.652 7.984 17.606 7.984 13.346 0 20.018-16.262 10.535-25.64.3-.325-11.506-10.097-28.142-13.453v-7.976c0-8.284-6.716-15-15-15s-15 6.716-15 15v9.018c-40.656 10.68-49.164 62.435-22.165 83.612 5.768 4.524 12.787 8.672 22.165 12.979v61.903c-6.504-.959-11.447-3.22-19.27-8.338-6.935-4.535-16.229-2.592-20.765 4.341-4.535 6.933-2.592 16.229 4.341 20.765 13.511 8.839 23.351 12.24 35.693 13.381v8.984c0 8.284 6.716 15 15 15s15-6.716 15-15v-10.375c52.459-13.322 62.756-88.538 7.648-108.017zm-37.647-16.64c-1.306-.85-2.532-1.712-3.65-2.589-6.395-5.016-5.44-19.968 3.65-27.341zm30 92.515v-46.657c21.89 9.498 16.659 36.799 0 46.657z"/></g></svg>