<svg id="Capa_1" enable-background="new 0 0 512 512" height="512" viewBox="0 0 512 512" width="512" xmlns="http://www.w3.org/2000/svg"><g><path d="m456.659 0h-71.659c-8.284 0-15 6.716-15 15s6.716 15 15 15h71.659c13.973 0 25.341 11.368 25.341 25.34v71.66c0 8.284 6.716 15 15 15s15-6.716 15-15v-71.66c0-30.514-24.826-55.34-55.341-55.34z"/><path d="m15 142c8.284 0 15-6.716 15-15v-71.66c0-13.972 11.368-25.34 25.341-25.34h71.659c8.284 0 15-6.716 15-15s-6.716-15-15-15h-71.659c-30.515 0-55.341 24.826-55.341 55.34v71.66c0 8.284 6.716 15 15 15z"/><path d="m127 482h-71.659c-13.973 0-25.341-11.368-25.341-25.34v-71.66c0-8.284-6.716-15-15-15s-15 6.716-15 15v71.66c0 30.514 24.826 55.34 55.341 55.34h71.659c8.284 0 15-6.716 15-15s-6.716-15-15-15z"/><path d="m497 370c-8.284 0-15 6.716-15 15v71.66c0 13.973-11.368 25.34-25.341 25.34h-71.659c-8.284 0-15 6.716-15 15s6.716 15 15 15h71.659c30.515 0 55.341-24.826 55.341-55.34v-71.66c0-8.284-6.716-15-15-15z"/><path d="m418.68 99.953c-104.116-77.23-216.323-79.195-323.494-1.369-6.703 4.868-8.19 14.248-3.323 20.951 4.867 6.702 14.246 8.191 20.951 3.323 96.847-70.327 194.721-67.998 287.993 1.189 6.653 4.935 16.048 3.543 20.984-3.111 4.935-6.653 3.542-16.048-3.111-20.983z"/><path d="m256 105c-63.724 0-145.647 42.429-180.48 94.68-4.596 6.893-2.733 16.206 4.16 20.801 6.894 4.593 16.207 2.733 20.801-4.161 28.879-43.32 101.552-81.32 155.519-81.32 52.845 0 125.12 28.193 154.977 80.442 2.769 4.846 7.83 7.561 13.037 7.561 11.319 0 18.784-12.341 13.01-22.444-34.389-60.183-115.138-95.559-181.024-95.559z"/><path d="m175 352c0-49.075 36.337-89 81-89s81 39.925 81 89v16c0 8.284 6.716 15 15 15s15-6.716 15-15v-16c0-65.617-49.794-119-111-119s-111 53.383-111 119c0 63.783 47.956 97.953 69.129 128.538 2.913 4.207 7.59 6.463 12.347 6.463 11.943 0 19.252-13.527 12.319-23.54-22.915-33.099-63.795-60.546-63.795-111.461z"/><path d="m421.416 406.708c46.359-92.714-36.079-237.708-165.416-237.708-91.059 0-175 77.177-175 175 0 35.516 4.556 65.554 26.79 96.713 4.812 6.743 14.179 8.309 20.923 3.497 6.743-4.812 8.31-14.179 3.497-20.923-15.659-21.945-21.21-42.693-21.21-79.287 0-77.243 67.757-145 145-145 38.886 0 77.289 17.151 105.363 47.056 39.742 42.333 54.023 105.63 33.221 147.236-21.655 43.306-91.584 31.031-91.584-25.292 0-111.245-113.955-77.973-93.552 3.638 2.008 8.037 10.154 12.922 18.189 10.914 8.037-2.009 12.924-10.153 10.914-18.19-5.239-20.961 4.372-37.362 17.449-37.362 11.743 0 17 20.592 17 41 0 87.832 112.514 110.517 148.416 38.708z"/></g></svg>