<svg id="Capa_1" enable-background="new 0 0 512.282 512.282" height="512" viewBox="0 0 512.282 512.282" width="512" xmlns="http://www.w3.org/2000/svg"><g><path d="m457.116 401.775c-25.219 0-46.525 17.017-53.077 40.166h-28.323v-72.704c0-17.495-14.233-31.729-31.729-31.729h-72.704v-41.698l136.972-.291c56.319-.117 104.028-45.054 104.028-103.678 0-69.401-60.754-122.017-126.669-109.606-14.847-21.437-39.227-34.27-65.994-33.921-47.258-75.206-161.927-59.132-186.688 26.188-91.518-18.318-161.195 80.757-121.571 163.399 16.465 34.276 52.386 58.261 93.796 58.261l136.125-.289v41.635h-72.704c-17.496 0-31.729 14.233-31.729 31.729v72.704h-28.323c-6.552-23.149-27.858-40.166-53.077-40.166-30.419 0-55.167 24.747-55.167 55.166s24.748 55.167 55.167 55.167c25.219 0 46.525-17.017 53.077-40.167h30.504c15.34 0 27.819-12.479 27.819-27.818v-74.886c0-.953.776-1.729 1.729-1.729h72.704v36.356c-23.15 6.552-40.167 27.857-40.167 53.076 0 30.419 24.748 55.167 55.167 55.167s55.167-24.748 55.167-55.167c0-25.219-17.017-46.524-40.167-53.076v-36.356h72.704c.953 0 1.729.775 1.729 1.729v74.886c0 15.339 12.479 27.818 27.819 27.818h30.504c6.552 23.15 27.858 40.167 53.077 40.167 30.419 0 55.166-24.748 55.166-55.167s-24.746-55.166-55.165-55.166zm-352.022-135.613c-29.022 0-54.827-16.552-66.687-41.241-25.905-54.03 11.816-122.513 73.274-122.513 9.456 0 18.692 1.676 27.452 4.979 9.447 3.566 19.684-3.057 20.269-13.165 4.583-36.596 35.76-64.114 72.779-64.114 27.974 0 53.126 15.55 65.642 40.581 2.895 5.789 9.176 9.074 15.582 8.135 20.767-3.025 41.747 7.225 51.476 27.218 3.247 6.673 10.886 9.965 17.968 7.752 49.725-15.565 100.703 24.216 99.407 80.335-.954 39.281-34.179 71.307-74.065 71.391l-147.642.313c-2.898-.86-5.856-.811-8.604.018zm-49.645 215.946c-13.877 0-25.167-11.29-25.167-25.167s11.29-25.166 25.167-25.166 25.167 11.289 25.167 25.166-11.29 25.167-25.167 25.167zm226-25.167c0 13.877-11.29 25.167-25.167 25.167s-25.167-11.29-25.167-25.167 11.29-25.166 25.167-25.166 25.167 11.289 25.167 25.166zm175.667 25.167c-13.877 0-25.167-11.29-25.167-25.167s11.29-25.166 25.167-25.166 25.167 11.289 25.167 25.166-11.29 25.167-25.167 25.167z"/></g></svg>