<svg id="Capa_1" enable-background="new 0 0 512 512" height="512" viewBox="0 0 512 512" width="512" xmlns="http://www.w3.org/2000/svg"><g><path d="m453.937 113h-395.873c-32.017 0-58.064 26.047-58.064 58.063v169.873c0 32.017 26.047 58.064 58.064 58.064h395.873c32.016 0 58.063-26.047 58.063-58.063v-169.874c0-32.016-26.047-58.063-58.063-58.063zm28.063 227.937c0 15.474-12.589 28.063-28.063 28.063h-395.873c-15.475 0-28.064-12.589-28.064-28.063v-169.874c0-15.474 12.589-28.063 28.064-28.063h395.873c15.474 0 28.063 12.589 28.063 28.063z"/><path d="m296.302 185c-8.284 0-15 6.716-15 15v75.267c0 12.39-10.32 21.733-24.006 21.733h-2.252c-13.685 0-24.005-9.344-24.005-21.733v-75.267c0-8.284-6.716-15-15-15s-15 6.716-15 15v75.267c0 29.01 23.722 51.733 54.005 51.733 35.23 0 56.258-24.605 56.258-51.733v-75.267c0-8.284-6.716-15-15-15z"/><path d="m439.365 187.713c-6.942-4.517-16.234-2.557-20.755 4.388l-22.93 35.224-23.196-35.525c-4.529-6.938-13.825-8.887-20.761-4.358-6.937 4.529-8.888 13.824-4.358 20.761l33.324 51.035-.129 52.728c-.021 8.284 6.679 15.016 14.964 15.036 8.391 0 15.016-6.763 15.036-14.963l.129-52.779 33.063-50.791c4.52-6.945 2.556-16.237-4.387-20.756z"/><path d="m150.599 247.146c16.755-26.945-2.778-62.146-34.9-62.146h-32.829c-8.284 0-15 6.716-15 15v112c0 8.177 6.588 15 15.066 15 .302-.002 30.292-.133 38.496-.133 42.043 0 61.694-52.567 29.167-79.721zm-34.9-32.146c6.068 0 11.005 4.832 11.005 10.771s-4.937 10.771-11.005 10.771c-4.361 0-8.939.03-17.829.03v-21.572zm5.733 81.867c-4.338 0-14.673.036-23.562.071v-30.343c7.35-.029 4.118-.022 23.562-.022 8.503 0 15.421 6.795 15.421 15.146 0 8.353-6.918 15.148-15.421 15.148z"/></g></svg>