<svg id="Capa_1" enable-background="new 0 0 512 512" height="512" viewBox="0 0 512 512" width="512" xmlns="http://www.w3.org/2000/svg"><g><path d="m458.574 60.363h-59.811v-32.576c0-8.284-6.716-15-15-15s-15 6.716-15 15v32.576h-226.531v-32.575c0-8.284-6.716-15-15-15s-15 6.716-15 15v32.575h-58.806c-29.459 0-53.426 23.966-53.426 53.425v331.999c0 29.459 23.967 53.426 53.426 53.426h405.148c29.459 0 53.426-23.967 53.426-53.426v-331.999c0-29.459-23.967-53.425-53.426-53.425zm23.426 385.424c0 12.917-10.509 23.426-23.426 23.426h-405.148c-12.917 0-23.426-10.509-23.426-23.426v-331.999c0-12.916 10.509-23.425 23.426-23.425h58.807v25.425c0 8.284 6.716 15 15 15s15-6.716 15-15v-25.425h226.531v25.424c0 8.284 6.716 15 15 15s15-6.716 15-15v-25.424h59.811c12.917 0 23.426 10.509 23.426 23.425v331.999z"/><path d="m223 385h-24c-8.284 0-15 6.716-15 15s6.716 15 15 15h24c8.284 0 15-6.716 15-15s-6.716-15-15-15z"/><path d="m327 385h-24c-8.284 0-15 6.716-15 15s6.716 15 15 15h24c8.284 0 15-6.716 15-15s-6.716-15-15-15z"/><path d="m349.472 229h-143.472v-37c0-8.284-6.716-15-15-15h-47.422c-8.284 0-15 6.716-15 15s6.716 15 15 15h32.422v125.65c0 12.323 10.026 22.35 22.35 22.35h129.781c10.151 0 19.041-6.857 21.617-16.675l21.342-81.302c3.718-14.165-6.96-28.023-21.618-28.023zm-27.243 96h-116.229c0-22.107 0-51.668 0-66h133.555z"/></g></svg>