<svg id="Capa_1" enable-background="new 0 0 512 512" height="512" viewBox="0 0 512 512" width="512" xmlns="http://www.w3.org/2000/svg"><g><path d="m15 102.65h482c8.284 0 15-6.716 15-15s-6.716-15-15-15h-482c-8.284 0-15 6.716-15 15s6.716 15 15 15z"/><path d="m497 409.35h-482c-8.284 0-15 6.716-15 15s6.716 15 15 15h482c8.284 0 15-6.716 15-15s-6.716-15-15-15z"/><path d="m63.2 136.783c-8.284 0-15 6.716-15 15v192.4c0 8.284 6.716 15 15 15h64.267c8.284 0 15-6.716 15-15v-192.4c0-8.284-6.716-15-15-15zm49.267 192.401h-34.267v-162.4h34.267z"/><path d="m256 136.783c-8.284 0-15 6.716-15 15v192.4c0 8.284 6.716 15 15 15h64.267c8.284 0 15-6.716 15-15v-192.4c0-8.284-6.716-15-15-15zm49.267 192.401h-34.267v-162.4h34.267z"/><path d="m176.733 151.783v192.4c0 8.284 6.716 15 15 15s15-6.716 15-15v-192.4c0-8.284-6.716-15-15-15s-15 6.716-15 15z"/><path d="m369.533 151.783v192.4c0 8.284 6.716 15 15 15s15-6.716 15-15v-192.4c0-8.284-6.716-15-15-15s-15 6.716-15 15z"/><path d="m433.8 151.783v192.4c0 8.284 6.716 15 15 15s15-6.716 15-15v-192.4c0-8.284-6.716-15-15-15s-15 6.716-15 15z"/></g></svg>