<svg id="Capa_1" enable-background="new 0 0 512.011 512.011" height="512" viewBox="0 0 512.011 512.011" width="512" xmlns="http://www.w3.org/2000/svg"><g><path d="m111.405 346.787h-61.678c-10.875 0-19.722-8.915-19.722-19.873v-61.946c0-8.284-6.716-15-15-15s-15 6.716-15 15v61.946c0 27.5 22.305 49.873 49.722 49.873h61.678c8.284 0 15-6.716 15-15s-6.716-15-15-15z"/><path d="m497.005 249.964c-8.284 0-15 6.716-15 15v61.952c0 10.957-8.848 19.872-19.724 19.872h-65.474l-30.135-30.218c22.854-51.214 11.69-113.014-31.4-152.728v-85.45c0-8.284-6.716-15-15-15s-15 6.716-15 15v64.581c-10.799-5.471-22.31-9.422-34.267-11.748v-52.832c0-8.284-6.716-15-15-15s-15 6.716-15 15v50.452c-11.761.38-23.26 2.278-34.267 5.615v-56.067c0-8.284-6.716-15-15-15s-15 6.716-15 15v69.469c-12.602 7.648-24.33 17.66-34.267 29.828v-99.297c0-8.284-6.716-15-15-15s-15 6.716-15 15c0 196.865-.047 183.948.084 185.199 1.129 96.733 101.136 159.396 187.908 119.777l114.515 114.831c18.364 18.415 48.109 18.417 66.473-.004 18.29-18.343 18.288-48.189-.003-66.532l-54.724-54.875h35.557c27.418 0 49.724-22.372 49.724-49.872v-61.952c0-8.285-6.715-15.001-15-15.001zm-324.372 85.08c-49.111-49.246-36.455-132.826 25.762-164.933 36.065-17.969 78.498-15.224 112.458 12.212 47.007 38.992 50.071 109.845 7.313 152.721-40.221 40.332-105.307 40.336-145.533 0zm287.575 141.97c-6.632 6.651-17.352 6.655-23.986.002l-109.368-109.67c8.73-6.813 16.857-14.881 23.983-24.171l109.37 109.671c6.644 6.664 6.644 17.505.001 24.168z"/><path d="m15.168 126.492c8.284 0 15-6.716 15-15v-61.737c0-10.893 8.794-19.755 19.604-19.755h61.47c8.284 0 15-6.716 15-15s-6.716-15-15-15h-61.47c-27.352 0-49.604 22.32-49.604 49.755v61.737c0 8.284 6.716 15 15 15z"/><path d="m400.768 30h61.47c10.81 0 19.604 8.862 19.604 19.755v61.737c0 8.284 6.716 15 15 15s15-6.716 15-15v-61.737c.001-27.435-22.252-49.755-49.604-49.755h-61.47c-8.284 0-15 6.716-15 15s6.716 15 15 15z"/><path d="m384.539 174.814c8.284 0 15-6.716 15-15v-81.425c0-8.284-6.716-15-15-15s-15 6.716-15 15v81.426c0 8.284 6.715 14.999 15 14.999z"/></g></svg>