<svg id="Capa_1" enable-background="new 0 0 512.004 512.004" height="512" viewBox="0 0 512.004 512.004" width="512" xmlns="http://www.w3.org/2000/svg"><g><path d="m461.113 301.292c14.706-4.685 25.389-18.47 25.389-34.708v-37.16c0-20.082-16.338-36.42-36.42-36.42h-33.288l-91.862-184.681c-3.689-7.417-12.693-10.437-20.11-6.75-7.417 3.689-10.439 12.693-6.75 20.111l85.216 171.319h-271.572l85.216-171.319c3.689-7.418.667-16.422-6.75-20.111-7.417-3.69-16.421-.667-20.11 6.75l-91.862 184.681h-33.288c-20.083 0-36.42 16.338-36.42 36.42v37.16c0 20.082 16.338 36.42 36.42 36.42h21.934l25.274 147.291c6.605 39.217 28.438 61.709 59.901 61.709h231.97c65.893 0 119.5-53.607 119.5-119.5.001-36.528-16.479-69.274-42.388-91.212zm-422.611-34.708v-37.16c0-3.54 2.88-6.42 6.42-6.42h405.159c3.54 0 6.42 2.88 6.42 6.42v37.16c0 3.54-2.88 6.42-6.42 6.42-23.428 0-381.745 0-405.159 0-3.54 0-6.42-2.88-6.42-6.42zm266.411 36.42c-10.833 9.584-19.918 21.098-26.713 34h-102.698c-8.284 0-15 6.716-15 15s6.716 15 15 15h91.748c-2.43 11.134-3.255 22.493-2.442 34h-150.697l-16.816-98zm-152.881 179c-26.12 0-29.393-31.296-32.773-51h151.608c6.777 19.86 18.649 37.378 34.046 51zm231.97 0c-62.629 0-105.875-62.984-83.668-121.27 1.271-1.771 2.165-3.825 2.567-6.055 14.281-30.497 45.262-51.675 81.102-51.675 49.351 0 89.5 40.149 89.5 89.5s-40.15 89.5-89.501 89.5z"/><path d="m423.502 377.004h-80c-8.284 0-15 6.716-15 15s6.716 15 15 15h80c8.284 0 15-6.716 15-15s-6.716-15-15-15z"/></g></svg>