<svg id="Capa_1" enable-background="new 0 0 595.281 841.891" height="512" viewBox="0 0 595.281 841.891" width="512" xmlns="http://www.w3.org/2000/svg"><g><path d="m584.109 132.022c-7.084-6.397-16.594-9.509-26.078-8.543l-75.355 7.688c-.002 0-.004 0-.006 0l-93.398 9.517h-.004l-93.396 9.527-93.396 9.529c-.001 0-.003 0-.004 0l-93.398 9.517c-.001 0-.002 0-.005 0l-77.949 7.952c-17.743 1.813-31.12 16.643-31.12 34.504v140.173c0 30.664 19.793 56.561 46.698 64.466v284.794c0 9.632 7.808 17.44 17.44 17.44 9.631 0 17.439-7.809 17.439-17.44v-284.79c11.345-3.331 21.401-9.853 29.245-18.576 11.669 12.956 28.201 21.066 46.52 21.066h.396c18.338 0 34.888-8.13 46.559-21.109 9.964 11.077 23.455 18.604 38.548 20.575v249.814c0 27.823 22.589 50.457 50.354 50.457h251.727c27.766 0 50.355-22.636 50.355-50.457v-510.949c0-9.574-4.073-18.744-11.172-25.155zm-23.709 26.277v183.221c0 23.008-13.309 42.445-29.066 42.445h-.383c-15.756 0-29.066-19.438-29.066-42.445v-177.251zm-93.397 183.221v7.028c0 19.529-13.039 35.417-29.066 35.417h-.395c-15.98 0-29.02-15.838-29.066-35.265v-174.911l58.527-5.964zm-93.406 7.181c0 19.445-13.039 35.265-29.066 35.265h-.385c-16.027 0-29.066-15.819-29.066-35.265v-165.387l58.518-5.97v171.357zm-307.509 35.203c-.594.041-1.168.062-1.758.062h-.383c-16.027 0-29.066-14.392-29.066-32.081v-139.996l58.516-5.971v146.013c-.023 16.908-11.994 30.95-27.309 31.973zm91.65.062h-.396c-16.027 0-29.066-14.36-29.066-32.081v-149.522l58.528-5.963v155.556c0 17.649-13.039 32.01-29.066 32.01zm63.946-32.01v-159.112l58.517-5.971v161.828 2.997c0 15.452-9.905 28.776-23.597 31.693-1.765.381-3.604.574-5.469.574h-.384c-15.945.001-28.985-14.397-29.067-32.009zm323.241 331.749h-251.726c-8.533 0-15.475-6.989-15.475-15.577v-255.368c7.763-3.738 14.646-9.056 20.326-15.52 11.643 13.301 27.997 21.605 46.096 21.605h.385c18.326 0 34.863-8.513 46.535-22.109 11.672 13.595 28.193 22.109 46.477 22.109h.395c18.744 0 35.631-8.912 47.338-23.084 11.922 14.679 28.48 23.084 45.676 23.084h.383c10.189 0 20.152-2.96 29.066-8.413v257.693c-.001 8.591-6.943 15.58-15.476 15.58z"/></g></svg>