<svg id="Capa_1" enable-background="new 0 0 512.115 512.115" height="512" viewBox="0 0 512.115 512.115" width="512" xmlns="http://www.w3.org/2000/svg"><g><path d="m437.077 75.038c-100.046-100.044-261.981-100.056-362.039 0-100.044 100.046-100.056 261.981 0 362.039 100.046 100.044 261.981 100.056 362.039 0 100.044-100.047 100.056-261.981 0-362.039zm-166.02 406.51v-130.158h76.066c-6.726 48.274-18.595 91.35-34.032 123.372-13.56 3.538-27.615 5.836-42.034 6.786zm-72.038-6.787c-11.8-24.458-21.526-55.348-28.455-90.274 12.571-7.078 22.096-18.936 26.104-33.096h44.389v130.157c-14.419-.95-28.476-3.248-42.038-6.787zm-159.32-153.371c-12.524-41.397-13.188-87.075 0-130.666h91.734c-2.682 30.51-3.458 61.281-2.347 92.449-18.612 5.079-33.325 19.675-38.573 38.217zm201.358-290.823v92.08c-18.377 5.201-32.876 19.7-38.077 38.077h-37.989c6.726-48.274 18.595-91.35 34.032-123.372 13.561-3.538 27.616-5.835 42.034-6.785zm72.035 6.786c15.437 32.021 27.305 75.097 34.031 123.372h-37.989c-5.201-18.377-19.7-32.876-38.077-38.077v-92.08c14.419.949 28.474 3.246 42.035 6.785zm55.432 284.037c-13.877 0-25.167-11.289-25.167-25.166s11.29-25.167 25.167-25.167 25.167 11.29 25.167 25.167-11.29 25.166-25.167 25.166zm-15.126-78.207c-33.453 9.555-49.804 47.406-33.941 78.208h-48.4v-92.591c18.377-5.201 32.876-19.699 38.077-38.076h41.427c1.577 17.169 2.528 34.723 2.837 52.459zm-97.341-92.626c13.877 0 25.167 11.29 25.167 25.167s-11.29 25.166-25.167 25.166-25.167-11.289-25.167-25.166 11.29-25.167 25.167-25.167zm-53.077 40.167c5.201 18.377 19.7 32.875 38.077 38.076v92.59h-44.389c-5.152-18.203-19.426-32.602-37.555-37.928-1.18-31.361-.34-62.447 2.441-92.738zm-59.389 120.5c13.877 0 25.167 11.289 25.167 25.166s-11.29 25.167-25.167 25.167-25.167-11.29-25.167-25.167 11.29-25.166 25.167-25.166zm239.811-68.112c-.298-17.686-1.21-35.211-2.72-52.388h91.734c12.524 41.397 13.188 87.075 0 130.666h-54.825c15.892-30.858-.558-68.844-34.189-78.278zm77.533-82.388h-83.534c-5.422-41.065-14.2-78.142-25.863-109.475 48.053 22.492 86.938 61.404 109.397 109.475zm-300.359-109.475c-11.663 31.333-20.441 68.411-25.863 109.475h-83.533c22.458-48.071 61.343-86.983 109.396-109.475zm-109.396 300.141h39.333c6.358 22.463 26.61 39.141 50.848 40.11 5.072 25.262 11.578 48.656 19.269 69.39-48.078-22.488-86.983-61.41-109.45-109.5zm300.358 109.476c11.663-31.333 20.442-68.411 25.864-109.476h83.533c-22.459 48.073-61.344 86.983-109.397 109.476z"/></g></svg>