<svg id="Capa_1" enable-background="new 0 0 511.705 511.705" height="512" viewBox="0 0 511.705 511.705" width="512" xmlns="http://www.w3.org/2000/svg"><g><path d="m436.005 38.538-156.167-35.876c-15.914-3.553-32.053-3.554-48.059.021l-155.989 35.835c-20.244 4.521-34.937 23.969-34.937 46.245v162.183c0 94.919 48.144 186.618 129.697 230.325l45.605 24.442c24.854 13.321 54.537 13.325 79.396 0l45.605-24.442c81.666-43.768 129.697-135.549 129.697-230.325v-162.183c0-22.276-14.693-41.725-34.848-46.225zm4.848 208.408c0 86.781-44.696 166.811-113.868 203.884-.103 0 2.213-1.186-45.605 24.442-16.223 8.695-34.83 8.695-51.053 0l-45.605-24.442c-69.174-37.074-113.869-117.103-113.869-203.884v-162.183c0-8.212 4.933-15.506 11.564-16.986 166.683-38.292 160.717-37.777 173.459-37.777 12.553 0 6.217-.633 173.502 37.797 6.542 1.46 11.474 8.754 11.474 16.966v162.183z"/><path d="m379.431 99.414-106.221-24.401c-11.516-2.57-23.195-2.571-34.802.021l-106.044 24.36c-15.941 3.56-27.511 18.755-27.511 36.132v110.284c0 68.176 35.612 131.313 90.727 160.852 30.954 16.59 40.737 23.986 60.273 23.986 19.665 0 29.627-7.561 60.273-23.986 55.115-29.538 90.727-92.676 90.727-160.852v-110.284c0-17.377-11.57-32.573-27.422-36.112zm-2.578 146.396c0 57.266-29.399 110.025-74.898 134.41-.1 0 1.921-1.03-31.012 16.621-9.59 5.141-20.591 5.141-30.181 0l-31.012-16.621c-45.499-24.385-74.898-77.145-74.898-134.41v-110.284c0-3.675 2.102-6.418 4.138-6.873 113.558-26.086 108.931-25.565 116.885-25.565 7.917 0 3.193-.541 116.928 25.586 1.947.435 4.049 3.178 4.049 6.853v110.283z"/><path d="m276.957 229.547c-1.877-.664-3.782-1.348-5.692-2.05v-37.559c3.286 1.614 4.952 3.263 4.171 2.561.188-.203 3.646 4.795 10.964 4.795 14.433 0 20.49-18.655 8.863-27.303-4.755-4.203-13.149-9.211-23.999-11.608v-5.748c0-8.284-6.716-15-15-15s-15 6.716-15 15v6.75c-35.785 10.108-44.306 57.135-19.073 76.927 5.026 3.942 11.097 7.561 19.073 11.288v51.997c-4.676-.984-8.674-2.956-14.564-6.809-6.934-4.536-16.229-2.592-20.764 4.342-4.535 6.933-2.591 16.229 4.341 20.764 11.755 7.689 20.449 10.84 30.987 12.006v6.491c0 8.284 6.716 15 15 15s15-6.716 15-15v-7.938c46.812-13.078 56.175-81.062 5.693-98.906zm-35.692-16.425c-5.43-4.1-4.11-13.745 0-19.34zm30 82.305v-35.657c14.041 7.88 11.403 26.737 0 35.657z"/></g></svg>