<svg id="Capa_1" enable-background="new 0 0 512 512" height="512" viewBox="0 0 512 512" width="512" xmlns="http://www.w3.org/2000/svg"><g><path d="m497 365h-10v-283.596c0-20.073-16.331-36.404-36.404-36.404h-389.192c-20.073 0-36.404 16.331-36.404 36.404v283.596h-10c-8.284 0-15 6.716-15 15 0 47.972 39.028 87 87 87h338c47.972 0 87-39.028 87-87 0-8.284-6.716-15-15-15zm-442-283.596c0-3.531 2.873-6.404 6.404-6.404h389.191c3.531 0 6.404 2.873 6.404 6.404v283.596h-401.999zm370 355.596h-338c-26.241 0-48.397-17.823-54.998-42h447.995c-6.601 24.177-28.756 42-54.997 42z"/><path d="m151 199.469v-76.469c0-8.284-6.716-15-15-15s-15 6.716-15 15v76.469c-18.58 6.276-32 23.86-32 44.531s13.42 38.255 32 44.531v28.469c0 8.284 6.716 15 15 15s15-6.716 15-15v-28.469c18.58-6.276 32-23.86 32-44.531s-13.42-38.255-32-44.531zm-15 61.531c-9.374 0-17-7.626-17-17s7.626-17 17-17 17 7.626 17 17-7.626 17-17 17z"/><path d="m271 151.469v-28.469c0-8.284-6.716-15-15-15s-15 6.716-15 15v28.469c-18.58 6.276-32 23.86-32 44.531s13.42 38.255 32 44.531v76.469c0 8.284 6.716 15 15 15s15-6.716 15-15v-76.469c18.58-6.276 32-23.86 32-44.531s-13.42-38.255-32-44.531zm-15 61.531c-9.374 0-17-7.626-17-17s7.626-17 17-17 17 7.626 17 17-7.626 17-17 17z"/><path d="m391 199.469v-76.469c0-8.284-6.716-15-15-15s-15 6.716-15 15v76.469c-18.58 6.276-32 23.86-32 44.531s13.42 38.255 32 44.531v28.469c0 8.284 6.716 15 15 15s15-6.716 15-15v-28.469c18.58-6.276 32-23.86 32-44.531s-13.42-38.255-32-44.531zm-15 61.531c-9.374 0-17-7.626-17-17s7.626-17 17-17 17 7.626 17 17-7.626 17-17 17z"/></g></svg>