<svg id="Capa_1" enable-background="new 0 0 512 512" height="512" viewBox="0 0 512 512" width="512" xmlns="http://www.w3.org/2000/svg"><g><path d="m469.213 229h-14.685l-154.569-134.966c12.861-30.79-9.895-65.034-43.458-65.034-33.509 0-56.339 34.196-43.458 65.034l-154.569 134.966h-15.687c-23.593 0-42.787 19.194-42.787 42.787v168.426c0 23.593 19.194 42.787 42.787 42.787h426.426c23.593 0 42.787-19.194 42.787-42.787v-168.426c0-23.593-19.194-42.787-42.787-42.787zm-212.712-170c9.41 0 17.066 7.626 17.066 17s-7.656 17-17.066 17-17.066-7.626-17.066-17 7.656-17 17.066-17zm-23.681 57.592c14.623 8.541 32.711 8.556 47.361 0l128.735 112.408h-304.83zm249.18 323.621c0 7.051-5.736 12.787-12.787 12.787h-426.426c-7.051 0-12.787-5.736-12.787-12.787v-168.426c0-7.051 5.736-12.787 12.787-12.787h426.426c7.051 0 12.787 5.736 12.787 12.787z"/><path d="m238.507 304.051c-5.459-14.456-26.042-14.825-31.969-.384-.092.224 1.609-4.226-36.489 95.598-2.954 7.74.926 16.409 8.665 19.362 7.742 2.954 16.408-.925 19.362-8.665l5.37-14.071h37.718l5.305 14.028c2.27 6.002 7.975 9.699 14.033 9.698 10.419 0 17.753-10.459 14.027-20.31zm-23.611 61.84 7.496-19.64 7.427 19.64z"/><path d="m346.459 389.915c-1.357 0-8.089.052-19.037.074v-81.989c0-8.284-6.716-15-15-15s-15 6.716-15 15v96.915c0 7.31 5.269 13.555 12.473 14.785 2.889.494 24.594.282 36.646.215 8.283-.046 14.962-6.8 14.916-15.084-.046-8.255-6.753-14.916-14.998-14.916z"/><path d="m433.146 323c8.284 0 15-6.716 15-15s-6.716-15-15-15h-40.728c-8.284 0-15 6.716-15 15v96.455c0 8.284 6.716 15 15 15h40.728c8.284 0 15-6.716 15-15s-6.716-15-15-15h-25.728v-18.228h22.725c8.284 0 15-6.716 15-15s-6.716-15-15-15h-22.725v-18.227z"/><path d="m127.901 342.681c-11.294-4.158-21.845-8.675-25.611-10.313-1.057-1.018-1.149-2.291-1.014-3.245 1.085-7.57 18.072-8.587 29.251.272.002-.004.023.023.026.018 9.391 8.347 24.664 1.8 24.664-11.381 0-4.813-2.229-9.09-5.688-11.854-28.01-23.107-73.127-14.955-77.95 18.688-2.254 15.732 7.003 29.794 17.053 34.269.561.25 13.895 6.173 28.904 11.699 5.643 2.076 11.418 5.72 10.706 9.715-.607 3.408-5.438 8.451-13.877 8.451-8.741 0-17.122-3.482-22.419-9.314-5.568-6.132-15.055-6.591-21.188-1.021-6.133 5.569-6.59 15.056-1.021 21.188 27.582 30.375 81.338 23.569 88.04-14.042 2.599-14.578-3.885-33.564-29.876-43.13z"/></g></svg>