<svg id="Capa_1" enable-background="new 0 0 512 512" height="512" viewBox="0 0 512 512" width="512" xmlns="http://www.w3.org/2000/svg"><g><path d="m487 280c0-44.454-30.694-81.868-72-92.179v-28.345c0-87.935-71.439-159.476-159.25-159.476s-159.25 71.541-159.25 159.477v28.467c-41.054 10.485-71.5 47.781-71.5 92.056 0 52.383 42.617 95 95 95h32c8.284 0 15-6.716 15-15v-160c0-8.284-6.716-15-15-15h-25.5v-25.523c0-71.394 57.981-129.477 129.25-129.477s129.25 58.083 129.25 129.477v25.523h-25c-8.284 0-15 6.716-15 15v160c0 8.284 6.716 15 15 15h25v22.691c0 28.016-22.793 50.809-50.809 50.809h-17.83c-6.42-18.321-23.875-31.5-44.361-31.5h-32c-26.355 0-47 21.084-47 48 0 25.916 21.084 47 47 47h32c21.386 0 39.01-13.884 44.897-33.5h17.295c44.558 0 80.809-36.25 80.809-80.809v-25.513c41.305-10.31 71.999-47.724 71.999-92.178zm-350 65h-17c-35.841 0-65-29.159-65-65s29.159-65 65-65h17zm135 137h-32c-9.374 0-17-7.626-17-17 0-11.817 8.552-18 17-18h32c9.374 0 17 7.626 17 17 0 11.817-8.552 18-17 18zm120-137h-17v-130h17c35.841 0 65 29.159 65 65s-29.159 65-65 65z"/></g></svg>