<svg id="Capa_1" enable-background="new 0 0 512 512" height="512" viewBox="0 0 512 512" width="512" xmlns="http://www.w3.org/2000/svg"><g><path d="m374.557 109.515v-24.075c0-20.094-16.231-36.44-36.182-36.44h-302.193c-19.951 0-36.182 16.347-36.182 36.44v37.119c0 18.469 13.715 33.761 31.425 36.115-2.345 7.781-1.786 10.994-1.786 38.525 0 10.191 3.643 19.539 9.68 26.8-6.037 7.261-9.68 16.608-9.68 26.8 0 27.197-.657 31.034 2.06 39.386-18.167 4.446-31.699 20.963-31.699 40.615v26.4c0 23.049 18.611 41.8 41.487 41.8h157.948c32.499 39.101 81.195 64 135.541 64 97.611 0 177.024-80.299 177.024-179 0-84.947-58.823-156.259-137.443-174.485zm-338.375 19.485c-3.409 0-6.182-2.89-6.182-6.44v-37.12c0-3.55 2.773-6.44 6.182-6.44h302.193c3.409 0 6.182 2.89 6.182 6.44v19.824c-35.63-1.93-69.327 6.913-98.043 23.735-7.877.001-190.951.001-210.332.001zm121.844 160h-86.9c-6.334 0-11.487-5.293-11.487-11.8v-26.4c0-6.507 5.153-11.8 11.487-11.8h92.496c-4.113 16-6.067 32.745-5.596 50zm-86.901-80c-6.334 0-11.487-5.293-11.487-11.8v-26.4c0-6.507 5.153-11.8 11.487-11.8h137.275c-14.009 14.501-25.607 31.389-34.136 50zm-29.638 160c-6.334 0-11.487-5.293-11.487-11.8v-26.4c0-6.507 5.153-11.8 11.487-11.8h119.874c3.493 17.745 9.581 34.554 17.858 50zm293.49 64c-81.069 0-147.023-66.841-147.023-149s65.955-149 147.023-149 147.023 66.841 147.023 149-65.955 149-147.023 149z"/><path d="m360.835 268.981c-2.282-.816-4.603-1.663-6.929-2.533v-43.795c7.923 3.411 8.813 7.676 16.503 7.676 13.601 0 20.089-16.644 10.274-25.896.145-.158-9.785-9.552-26.777-13.079v-7.354c0-8.284-6.716-15-15-15s-15 6.716-15 15v8.39c-38.717 10.55-47.194 60.799-21.011 81.587 5.49 4.358 12.151 8.355 21.011 12.496v59.056c-5.737-.985-10.3-3.17-17.338-7.83-6.907-4.573-16.215-2.682-20.788 4.226-4.574 6.907-2.682 16.214 4.226 20.788 12.842 8.503 22.247 11.852 33.901 13.016v8.271c0 8.284 6.716 15 15 15s15-6.716 15-15v-9.703c50.551-13.437 59.816-86.394 6.928-105.316zm-36.928-16.769c-.824-.572-1.622-1.147-2.357-1.731-5.372-4.265-5.261-17.315 2.357-24.798zm30 89.582v-43.237c18.871 9.098 14.516 33.556 0 43.237z"/></g></svg>