<svg id="Capa_1" enable-background="new 0 0 512 512" height="512" viewBox="0 0 512 512" width="512" xmlns="http://www.w3.org/2000/svg"><g><path d="m421.447 0h-330.894c-36.146 0-65.553 29.407-65.553 65.553v380.895c0 36.145 29.407 65.552 65.553 65.552h330.894c36.146 0 65.553-29.407 65.553-65.553v-380.894c0-36.146-29.407-65.553-65.553-65.553zm35.553 446.447c0 19.604-15.949 35.553-35.553 35.553h-330.894c-19.604 0-35.553-15.949-35.553-35.553v-380.894c0-19.604 15.949-35.553 35.553-35.553h330.894c19.604 0 35.553 15.949 35.553 35.553z"/><path d="m381.394 138.606c9.478 9.479 25.606 2.635 25.606-10.606 0-3.839-1.465-7.678-4.394-10.606l-48-48c-4.096-4.915-13.87-6.415-20.417-.741-.629.544 2.763-2.818-48.796 48.741-5.858 5.857-5.858 15.355 0 21.213 5.857 5.857 15.355 5.857 21.213 0l22.394-22.394v279.574l-22.394-22.394c-5.857-5.857-15.355-5.857-21.213 0s-5.858 15.355 0 21.213l47.92 47.92c6.515 6.628 17.016 5.212 21.293.08l48-48c2.929-2.928 4.394-6.767 4.394-10.606 0-13.244-16.131-20.082-25.606-10.606l-22.394 22.393v-279.574z"/><path d="m185.237 77.591c-5.681-15.22-27.601-15.82-33.919-.38-.118.292 2.305-6.066-53.877 141.45-2.949 7.742.937 16.408 8.679 19.356 7.742 2.951 16.408-.938 19.356-8.679l9.705-25.482h65.642l9.601 25.439c2.267 6.007 7.974 9.708 14.036 9.708 10.413 0 17.751-10.446 14.031-20.3zm-38.63 96.265 21.546-56.57 21.349 56.57z"/><path d="m216.819 417h-68.387l78.718-120.812c6.493-9.966-.68-23.188-12.568-23.188h-90.874c-8.284 0-15 6.716-15 15s6.716 15 15 15h63.197l-78.717 120.812c-6.494 9.966.678 23.188 12.567 23.188h96.064c8.284 0 15-6.716 15-15s-6.715-15-15-15z"/></g></svg>