<svg id="Capa_1" enable-background="new 0 0 512.059 512.059" height="512" viewBox="0 0 512.059 512.059" width="512" xmlns="http://www.w3.org/2000/svg"><g><path d="m463.059 105.894v-41.124c0-23.97-19.555-43.47-43.59-43.47h-374.82c-24.035 0-43.59 19.5-43.59 43.47v78.281c-1.425 6.775-1-15.081-1 266.077 0 25.787 21.039 46.767 46.898 46.767h132.234c5.439 0 10.751 1.517 15.36 4.385l38.476 23.948c14.019 8.726 32.098 8.691 46.063 0l38.477-23.948c4.608-2.868 9.92-4.385 15.359-4.385h132.234c25.859 0 46.898-20.979 46.898-46.767v-256.468c.001-23.865-18.38-46.766-48.999-46.766zm-418.41-54.593h374.82c7.493 0 13.59 6.043 13.59 13.47v41.124c-422.609 0-391.016-1.188-402 2.771v-43.896c0-7.426 6.097-13.469 13.59-13.469zm437.41 357.827c0 9.245-7.581 16.767-16.898 16.767h-132.234c-11.049 0-21.842 3.083-31.212 8.916l-38.478 23.948c-4.359 2.713-9.996 2.713-14.355 0l-38.477-23.948c-9.371-5.833-20.164-8.916-31.213-8.916h-132.234c-9.317 0-16.898-7.521-16.898-16.767v-256.468c0-9.244 7.581-16.766 16.898-16.766h418.203c9.317 0 16.898 7.521 16.898 16.766z"/><path d="m256.059 225.894c-25.916 0-47 21.084-47 47s21.084 47 47 47 47-21.084 47-47-21.084-47-47-47zm0 64c-9.374 0-17-7.626-17-17s7.626-17 17-17 17 7.626 17 17-7.626 17-17 17z"/><path d="m128.059 225.894c-25.916 0-47 21.084-47 47s21.084 47 47 47 47-21.084 47-47-21.084-47-47-47zm0 64c-9.374 0-17-7.626-17-17s7.626-17 17-17 17 7.626 17 17-7.626 17-17 17z"/><path d="m384.059 225.894c-25.916 0-47 21.084-47 47s21.084 47 47 47 47-21.084 47-47-21.084-47-47-47zm0 64c-9.374 0-17-7.626-17-17s7.626-17 17-17 17 7.626 17 17-7.626 17-17 17z"/></g></svg>