<svg id="Capa_1" enable-background="new 0 0 512 512" height="512" viewBox="0 0 512 512" width="512" xmlns="http://www.w3.org/2000/svg"><g><path d="m444.7 41h-377.4c-37.11 0-67.3 30.19-67.3 67.3v215.4c0 36.338 28.953 66.022 65 67.241v53.909c0 14.42 11.73 26.15 26.149 26.15h121.702c14.419 0 26.149-11.73 26.149-26.149v-53.851h205.7c37.109 0 67.3-30.19 67.3-67.3v-215.4c0-37.11-30.19-67.3-67.3-67.3zm-377.4 30h377.4c20.567 0 37.3 16.732 37.3 37.3v12.7h-452v-12.7c0-20.568 16.732-37.3 37.3-37.3zm117.7 250h-66v-17c0-13.785 11.215-25 25-25h16c13.785 0 25 11.215 25 25zm24 120h-114v-90h114zm235.7-80h-205.7v-13.851c0-13.695-10.584-24.957-24-26.054v-17.095c0-30.327-24.673-55-55-55h-16c-30.327 0-55 24.673-55 55v17.096c-13.416 1.097-24 12.359-24 26.054v13.772c-19.5-1.192-35-17.427-35-37.222v-172.7h452v172.7c0 20.568-16.732 37.3-37.3 37.3z"/><path d="m240 185h-160c-8.284 0-15 6.716-15 15s6.716 15 15 15h160c8.284 0 15-6.716 15-15s-6.716-15-15-15z"/><path d="m410.319 185h-84.639c-20.225 0-36.68 16.455-36.68 36.681v20.639c0 20.225 16.455 36.68 36.681 36.68h84.639c20.225 0 36.68-16.455 36.68-36.681v-20.639c0-20.225-16.455-36.68-36.681-36.68zm6.681 57.319c0 3.684-2.997 6.681-6.681 6.681h-84.639c-3.684 0-6.681-2.997-6.681-6.681v-20.639c0-3.684 2.997-6.681 6.681-6.681h84.639c3.684 0 6.681 2.997 6.681 6.681z"/></g></svg>