<svg id="Capa_1" enable-background="new 0 0 512 512" height="512" viewBox="0 0 512 512" width="512" xmlns="http://www.w3.org/2000/svg"><g><path d="m444.702 81h-377.404c-37.108 0-67.298 30.189-67.298 67.298v215.404c0 37.109 30.19 67.298 67.298 67.298h377.404c37.109 0 67.298-30.189 67.298-67.298v-215.404c0-37.109-30.189-67.298-67.298-67.298zm37.298 282.702c0 20.567-16.731 37.298-37.298 37.298h-377.404c-20.566 0-37.298-16.731-37.298-37.298v-215.404c0-20.567 16.732-37.298 37.298-37.298h377.404c20.567 0 37.298 16.731 37.298 37.298z"/><path d="m432 145h-88c-8.284 0-15 6.716-15 15s6.716 15 15 15h88c8.284 0 15-6.716 15-15s-6.716-15-15-15z"/><path d="m432 209h-176c-8.284 0-15 6.716-15 15s6.716 15 15 15h176c8.284 0 15-6.716 15-15s-6.716-15-15-15z"/><path d="m432 273h-176c-8.284 0-15 6.716-15 15s6.716 15 15 15h176c8.284 0 15-6.716 15-15s-6.716-15-15-15z"/><path d="m344 337h-88c-8.284 0-15 6.716-15 15s6.716 15 15 15h88c8.284 0 15-6.716 15-15s-6.716-15-15-15z"/><path d="m140.129 241.077c-2.087-.738-4.208-1.501-6.333-2.285v-40.486c3.404 1.537 5.386 3.164 5.386 3.164 2.677 2.493 6.257 4.029 10.203 4.029 13.712 0 20.141-16.866 10.103-26.046.177-.19-9.805-9.16-25.693-12.535v-6.472c0-8.284-6.716-15-15-15s-15 6.716-15 15v7.49c-37.354 10.305-45.911 58.867-20.087 79.12 5.271 4.135 11.646 7.929 20.087 11.848v55.25c-5.261-.978-9.577-3.05-16.106-7.321-6.932-4.537-16.229-2.592-20.764 4.342-4.535 6.933-2.591 16.229 4.341 20.764 12.332 8.067 21.404 11.301 32.529 12.459v7.306c0 8.284 6.716 15 15 15s15-6.716 15-15v-8.736c48.883-13.222 58.068-83.604 6.334-101.891zm-36.333-16.456c-.544-.387-1.072-.775-1.572-1.168-4.62-3.624-4.848-14.735 1.572-21.833zm30 85.67v-39.36c16.498 8.397 13.239 30.008 0 39.36z"/></g></svg>