<svg id="Capa_1" enable-background="new 0 0 512.019 512.019" height="512" viewBox="0 0 512.019 512.019" width="512" xmlns="http://www.w3.org/2000/svg"><g><path d="m483.185 288.266c-4.571-2.602-9.694-4.563-8.978-11.273.692-6.495 5.855-7.271 10.854-8.846 40.082-12.633 33.861-71.409-8.053-75.549-5.231-.517-10.598-.219-12.675-6.606-2.061-6.329 2.404-9.202 6.32-12.688 31.386-27.931 1.853-79.149-38.052-65.8-4.997 1.672-9.646 4.088-14.077-.812-4.557-5.037-1.518-9.66.591-14.344 17.312-38.453-30.538-73.115-61.437-44.629-4.004 3.691-7.085 7.636-13.031 5.021-6.217-2.745-5.302-8.307-5.277-13.421.206-42.314-57.548-54.417-74.147-15.764-2.089 4.865-3.399 9.921-9.823 9.939-6.601.019-8.013-5.208-10.152-10.114-16.891-38.728-74.564-26.49-74.038 15.773l.064 5.219c.096 7.64-8.776 11.586-14.397 6.415l-3.844-3.534c-31.118-28.613-78.744 6.134-61.183 44.569l2.171 4.75c3.218 7.043-3.324 14.285-10.451 11.878l-4.933-1.666c-39.87-13.47-69.419 37.605-37.779 65.702l3.903 3.467c5.793 5.143 2.769 14.555-4.699 15.263l-5.169.489c-41.812 3.964-48.029 62.711-7.806 75.521l4.958 1.579c7.339 2.337 8.393 12.288 1.842 16.006l-4.509 2.56c-36.595 20.775-18.186 76.959 23.568 72.261l5.157-.58c7.481-.861 12.6 7.806 8.056 13.998l-3.074 4.188c-24.869 33.894 14.629 77.866 50.865 56.45l4.464-2.639c6.501-3.844 14.518 2.082 12.889 9.59l-1.104 5.091c-8.96 41.303 45.046 65.176 69.313 30.863l2.998-4.24c4.342-6.137 13.952-4.071 15.517 3.514l1.054 5.113c8.553 41.487 67.534 41.288 75.743-.011 1.031-5.185 1.273-10.468 7.57-11.818 6.505-1.394 9.007 3.662 11.936 7.771 24.529 34.423 78.365 10.408 69.114-30.841-1.151-5.133-3.124-10.203 2.177-14.054 5.15-3.749 9.188-.514 13.87 2.261 36.283 21.5 75.731-22.336 50.586-56.358-3.144-4.254-7.023-8.135-3.685-13.901 3.192-5.498 8.068-4.205 13.485-3.574 41.818 4.856 59.993-51.306 23.308-72.189zm-10.78 36.577c-2.497 7.627-9.211 5.794-14.219 5.211-33.508-3.918-55.55 34.164-35.34 61.507 3.052 4.129 8.147 9.242 2.627 15.35-5.351 5.927-10.781 1.515-15.175-1.09-29.158-17.275-64.705 8.592-57.271 41.729 1.155 5.151 3.668 11.644-3.694 14.931-7.362 3.288-10.606-3.016-13.604-7.224-19.742-27.699-62.717-18.423-69.313 14.755-1.022 5.143-1.33 11.982-9.315 12.008-8.158 0-8.597-6.898-9.692-12.211-6.854-33.244-49.882-42.364-69.393-14.775-3.034 4.291-6.042 10.329-13.382 7.093-2.001-.881-6.507-3.622-5.115-10.035l1.104-5.091c7.185-33.114-28.465-58.922-57.474-41.775-4.384 2.591-9.733 7.003-15.232.926-1.468-1.62-4.467-5.952-.644-11.163l3.074-4.188c19.965-27.21-2.062-65.335-35.596-61.56-5.269.593-11.876 2.417-14.454-5.507-.665-2.046-1.617-7.145 3.894-10.272l4.508-2.56c29.309-16.635 24.691-60.413-7.549-70.681-5.037-1.604-11.971-2.684-11.078-11.021.225-2.097 1.421-7.037 7.651-7.627l5.169-.489c33.61-3.187 47.146-45.049 21.791-67.562-3.864-3.432-9.895-7.369-5.727-14.548 4.011-6.914 10.198-3.728 15.013-2.102 32.036 10.828 61.466-21.852 47.339-52.769-2.15-4.705-6.035-10.688.56-15.473 6.498-4.717 10.945.784 14.703 4.239 24.989 22.98 65.124 5.038 64.702-28.87-.064-5.163-1.189-12.07 6.651-13.758 2.085-.445 7.218-.846 9.827 5.134l2.089 4.788c13.609 31.207 57.578 31.035 70.898.01 2.075-4.832 3.772-11.386 11.59-9.761 2.129.443 7.076 2.185 7.044 8.761l-.025 5.216c-.166 33.889 40.027 51.792 64.851 28.906 3.855-3.552 8.062-8.844 14.619-4.111 1.777 1.281 5.623 4.902 2.945 10.851l-2.136 4.743c-13.892 30.856 15.634 63.509 47.576 52.823 4.955-1.658 11.048-4.816 15.185 2.329 1.089 1.879 3.104 6.709-1.677 10.964l-3.874 3.448c-25.197 22.422-11.554 64.282 22.054 67.601 5.047.498 12.203.126 13.066 8.452.22 2.118.084 7.249-5.909 9.139l-4.95 1.56c-32.117 10.122-36.755 53.887-7.28 70.667 4.49 2.556 11.19 5.146 8.588 13.082z"/><path d="m298.076 152.904c-7.643-3.197-16.43.404-19.628 8.046l-73.063 174.594c-4.156 9.932 3.207 20.795 13.831 20.795 5.865 0 11.437-3.464 13.843-9.213l73.063-174.594c3.198-7.643-.405-16.431-8.046-19.628z"/><path d="m227.745 196.226c0-29.016-21.211-52.622-47.283-52.622s-47.284 23.606-47.284 52.622 21.212 52.622 47.284 52.622 47.283-23.606 47.283-52.622zm-47.283 22.622c-9.369 0-17.284-10.359-17.284-22.622s7.915-22.622 17.284-22.622c9.368 0 17.283 10.359 17.283 22.622s-7.915 22.622-17.283 22.622z"/><path d="m331.902 262.976c-26.072 0-47.283 23.606-47.283 52.622 0 29.017 21.211 52.623 47.283 52.623s47.283-23.606 47.283-52.623c0-29.015-21.211-52.622-47.283-52.622zm0 75.245c-9.368 0-17.283-10.36-17.283-22.623s7.915-22.622 17.283-22.622 17.283 10.359 17.283 22.622-7.915 22.623-17.283 22.623z"/></g></svg>