<svg id="Capa_1" enable-background="new 0 0 512 512" height="512" viewBox="0 0 512 512" width="512" xmlns="http://www.w3.org/2000/svg"><path d="m497 281h-24v-133.91c0-18.797-15.293-34.09-34.09-34.09h-69.91v-98c0-8.284-6.716-15-15-15h-256c-8.284 0-15 6.716-15 15v98h-18.188c-35.604 0-64.812 27.97-64.812 63v285.787c0 27.181 22.015 50.213 49.304 50.213h325.606c18.797 0 34.09-15.292 34.09-34.09v-6.91h29.91c18.797 0 34.09-15.292 34.09-34.09v-29.91h24c8.284 0 15-6.716 15-15v-96c0-8.284-6.716-15-15-15zm-58.09-138c2.255 0 4.09 1.834 4.09 4.09v133.91h-34v-37.91c0-18.577-15.057-34.09-34.141-34.09h-5.859v-66zm-325.91-113h226v179h-34v-129c0-8.284-6.716-15-15-15h-128c-8.284 0-15 6.716-15 15v129h-34zm113 115c-8.284 0-15 6.716-15 15v49h-34v-114h98v114h-34v-49c0-8.284-6.716-15-15-15zm-186 7.859c12.314-11.872 25.671-9.859 43-9.859v66c-6.285 0-11.645 0-18.188 0-30.704 0-46.402-35.352-24.812-56.141zm339 325.051c0 2.255-1.835 4.09-4.09 4.09h-325.606c-10.464 0-19.304-9.256-19.304-20.213v-232.688c17.413 10.825 32.204 9.901 44.33 9.901h300.58c2.255 0 4.09 1.834 4.09 4.09v37.91h-36.152c-25.281 0-45.848 20.492-45.848 45.681v34.639c0 25.188 20.567 45.68 45.848 45.68h36.152zm64-41c0 2.255-1.835 4.09-4.09 4.09h-29.91v-34h34zm39-59.91h-139.152c-8.738 0-15.848-7.034-15.848-15.681v-34.639c0-8.646 7.109-15.681 15.848-15.681h139.152z"/></svg>