<svg id="Capa_1" enable-background="new 0 0 512 512" height="512" viewBox="0 0 512 512" width="512" xmlns="http://www.w3.org/2000/svg"><g><path d="m380.468 0h-248.936c-32.275 0-58.532 26.257-58.532 58.532v394.937c0 32.274 26.257 58.531 58.532 58.531h248.937c32.274 0 58.531-26.257 58.531-58.532v-394.936c0-32.275-26.257-58.532-58.532-58.532zm-63.608 30-2.004 8.143c-3.893 15.813-17.75 26.857-33.698 26.857h-50.315c-15.949 0-29.806-11.044-33.698-26.856l-2.005-8.144zm92.14 423.468c0 15.733-12.799 28.532-28.532 28.532h-248.936c-15.733 0-28.532-12.799-28.532-28.532v-394.936c0-15.733 12.799-28.532 28.532-28.532h32.713l3.769 15.314c7.201 29.254 33.037 49.686 62.828 49.686h50.315c29.792 0 55.627-20.432 62.829-49.687l3.77-15.313h32.713c15.732 0 28.531 12.799 28.531 28.532z"/><path d="m264 177h-112c-8.284 0-15 6.716-15 15s6.716 15 15 15h112c8.284 0 15-6.716 15-15s-6.716-15-15-15z"/><path d="m374.71 189.07c-1.876-8.995-10.851-13.921-19.06-11.42-8.452 2.694-12.253 11.152-10 18.71 2.798 8.587 11.252 12.205 18.71 9.99 7.951-2.6 11.705-10.04 10.35-17.28z"/><path d="m264 241h-112c-8.284 0-15 6.716-15 15s6.716 15 15 15h112c8.284 0 15-6.716 15-15s-6.716-15-15-15z"/><path d="m374.71 253.07c-1.868-8.958-10.811-13.933-19.06-11.42-8.533 2.72-12.25 11.308-10 18.7 2.684 8.41 11.094 12.262 18.71 10 7.952-2.6 11.705-10.039 10.35-17.28z"/><path d="m264 305h-112c-8.284 0-15 6.716-15 15s6.716 15 15 15h112c8.284 0 15-6.716 15-15s-6.716-15-15-15z"/><path d="m374.71 317.07c-1.876-8.995-10.851-13.921-19.06-11.42-8.452 2.694-12.253 11.152-10 18.71 2.798 8.587 11.252 12.205 18.71 9.99 7.951-2.6 11.705-10.04 10.35-17.28z"/><path d="m264 369h-112c-8.284 0-15 6.716-15 15s6.716 15 15 15h112c8.284 0 15-6.716 15-15s-6.716-15-15-15z"/><path d="m374.71 381.07c-1.868-8.958-10.811-13.933-19.06-11.42-8.533 2.72-12.25 11.308-10 18.7 2.684 8.41 11.094 12.262 18.71 10 7.952-2.6 11.705-10.039 10.35-17.28z"/></g></svg>