<svg id="Capa_1" enable-background="new 0 0 512 512" height="512" viewBox="0 0 512 512" width="512" xmlns="http://www.w3.org/2000/svg"><g><path d="m481.275 386h-82.275v-213.298c40.848-7.129 72-42.844 72-85.702 0-47.972-39.028-87-87-87s-87 39.028-87 87c0 42.858 31.152 78.573 72 85.702v213.298h-98v-154.702c0-20.566-16.732-37.298-37.298-37.298-55.522 0-96.035 0-147.404 0-20.566 0-37.298 16.732-37.298 37.298v154.702h-18.275c-16.942 0-30.725 13.754-30.725 30.66v32.681c0 16.905 13.783 30.659 30.725 30.659h34.275v17c0 8.284 6.716 15 15 15s15-6.716 15-15v-17h322v17c0 8.284 6.716 15 15 15s15-6.716 15-15v-17h34.275c16.942 0 30.725-13.754 30.725-30.66v-32.68c0-16.906-13.783-30.66-30.725-30.66zm-154.275-299c0-43.815 47.563-71.087 85.258-49.471l-38.864 38.864c-5.858 5.858-5.858 15.355 0 21.213 5.857 5.858 15.355 5.859 21.213 0l38.864-38.864c21.624 37.709-5.67 85.258-49.471 85.258-31.43 0-57-25.57-57-57zm-150 137v34h-34v-34zm-98 7.298c0-4.024 3.274-7.298 7.298-7.298h26.702v49c0 8.284 6.716 15 15 15h64c8.284 0 15-6.716 15-15v-49h26.702c4.024 0 7.298 3.274 7.298 7.298v154.702h-162zm403 218.042c0 1.026 19.502.66-451.275.66-1.045 0-.725 1.992-.725-33.34 0-.973-21.107-.66 451.275-.66 1.045 0 .725-1.992.725 33.34z"/></g></svg>