<svg id="Capa_1" enable-background="new 0 0 512 512" height="512" viewBox="0 0 512 512" width="512" xmlns="http://www.w3.org/2000/svg"><g><path d="m456.659 0h-71.659c-8.284 0-15 6.716-15 15s6.716 15 15 15h71.659c13.973 0 25.341 11.368 25.341 25.34v71.66c0 8.284 6.716 15 15 15s15-6.716 15-15v-71.66c0-30.514-24.826-55.34-55.341-55.34z"/><path d="m15 142c8.284 0 15-6.716 15-15v-71.66c0-13.972 11.368-25.34 25.341-25.34h71.659c8.284 0 15-6.716 15-15s-6.716-15-15-15h-71.659c-30.515 0-55.341 24.826-55.341 55.34v71.66c0 8.284 6.716 15 15 15z"/><path d="m127 482h-71.659c-13.973 0-25.341-11.368-25.341-25.34v-71.66c0-8.284-6.716-15-15-15s-15 6.716-15 15v71.66c0 30.514 24.826 55.34 55.341 55.34h71.659c8.284 0 15-6.716 15-15s-6.716-15-15-15z"/><path d="m497 370c-8.284 0-15 6.716-15 15v71.66c0 13.973-11.368 25.34-25.341 25.34h-71.659c-8.284 0-15 6.716-15 15s6.716 15 15 15h71.659c30.515 0 55.341-24.826 55.341-55.34v-71.66c0-8.284-6.716-15-15-15z"/><path d="m447 432v-160c0-8.284-6.716-15-15-15h-160c-8.284 0-15 6.716-15 15v160c0 8.284 6.716 15 15 15h160c8.284 0 15-6.716 15-15zm-30-15h-130v-130h130z"/><path d="m312 223h112c8.284 0 15-6.716 15-15v-112c0-8.284-6.716-15-15-15h-112c-8.284 0-15 6.716-15 15v112c0 8.284 6.716 15 15 15zm15-112h82v82h-82z"/><path d="m224 65h-144c-8.284 0-15 6.716-15 15v144c0 8.284 6.716 15 15 15h144c8.284 0 15-6.716 15-15v-144c0-8.284-6.716-15-15-15zm-15 144h-114v-114h114z"/><path d="m208 417h-113v-129c0-8.284-6.716-15-15-15s-15 6.716-15 15v144c0 8.284 6.716 15 15 15h128c8.284 0 15-6.716 15-15s-6.716-15-15-15z"/><path d="m159 368v-80c0-8.284-6.716-15-15-15s-15 6.716-15 15v80c0 8.284 6.716 15 15 15s15-6.716 15-15z"/><path d="m208 273c-8.284 0-15 6.716-15 15v80c0 8.284 6.716 15 15 15s15-6.716 15-15v-80c0-8.284-6.716-15-15-15z"/><path d="m336 367h32c8.284 0 15-6.716 15-15s-6.716-15-15-15h-32c-8.284 0-15 6.716-15 15s6.716 15 15 15z"/><path d="m152 175c8.284 0 15-6.716 15-15v-16c0-8.284-6.716-15-15-15s-15 6.716-15 15v16c0 8.284 6.716 15 15 15z"/></g></svg>